# xmcd
#
# Track frame offsets:
#	150
#	13006
#	22720
#	34001
#	53518
#	71584
#	81848
#	94209
#	112684
#
# Disc length: 1828 seconds
#
# Revision: 0
# Processed by: cddbd v1.5.2PL0 Copyright (c) Steve Scherf et al.
# Submitted via: dBpowerAMP V4.0
#
DISCID=5c072209
DTITLE=Various Artist - Snowed in: A tribute to Hank Snow
DYEAR=2006
DGENRE=country
TTITLE0=The Golden Rocket - Ayla Brooks and the D-rangers
TTITLE1=Little golden Horshoe - Twin Fangs
TTITLE2=I'm Movin' On - City streets and Friends
TTITLE3=The Drunkards Son - The Last Deal
TTITLE4=I Don't Hurt anymore - Field and Stream
TTITLE5=(0 miles an hour (down a dead end street) - Shout out out out out
TTITLE6=Fool Such as I - John Guliak and the new lougans
TTITLE7=Miller's Cave - Jerry Jerry and the sons of Rhythm Orchestra
TTITLE8=My Nova Scotia Home - The Dry Heeves
EXTD=
EXTT0=
EXTT1=
EXTT2=
EXTT3=
EXTT4=
EXTT5=
EXTT6=
EXTT7=
EXTT8=
PLAYORDER=
